<?xml version="1.0" standalone="no"?><!DOCTYPE svg PUBLIC "-//W3C//DTD SVG 1.1//EN" "http://www.w3.org/Graphics/SVG/1.1/DTD/svg11.dtd"><svg t="1608387850502" class="icon" viewBox="0 0 1024 1024" version="1.1" xmlns="http://www.w3.org/2000/svg" p-id="3020" xmlns:xlink="http://www.w3.org/1999/xlink" width="200" height="200"><defs><style type="text/css"></style></defs><path d="M512 0a512 512 0 1 1 0 1024A512 512 0 0 1 512 0z m0 96.036571a416.036571 416.036571 0 1 0 0 832A416.036571 416.036571 0 0 0 512 95.963429z m0.438857 193.243429c26.550857 0 48.054857 21.504 48.054857 47.981714l-0.073143 128h128a47.981714 47.981714 0 0 1 0 96.036572h-128v128a47.981714 47.981714 0 1 1-95.963428 0v-128H336.457143a47.981714 47.981714 0 1 1 0-96.036572h128v-128c0-26.477714 21.504-47.981714 47.981714-47.981714z" p-id="3021" fill="#e6e6e6"></path></svg>