<?xml version="1.0" standalone="no"?><!DOCTYPE svg PUBLIC "-//W3C//DTD SVG 1.1//EN" "http://www.w3.org/Graphics/SVG/1.1/DTD/svg11.dtd"><svg t="1608388065803" class="icon" viewBox="0 0 1024 1024" version="1.1" xmlns="http://www.w3.org/2000/svg" p-id="3068" xmlns:xlink="http://www.w3.org/1999/xlink" width="200" height="200"><defs><style type="text/css"></style></defs><path d="M781.963636 916.945455H242.036364c-13.963636 0-27.927273-11.636364-27.927273-27.927273s11.636364-27.927273 27.927273-27.927273h539.927272c13.963636 0 27.927273 11.636364 27.927273 27.927273s-13.963636 27.927273-27.927273 27.927273z" p-id="3069" fill="#e6e6e6"></path><path d="M889.018182 107.054545c-13.963636 0-27.927273 11.636364-27.927273 27.927273v807.563637c0 13.963636-11.636364 27.927273-27.927273 27.927272H242.036364c-44.218182 0-81.454545-37.236364-81.454546-81.454545s37.236364-81.454545 81.454546-81.454546h484.072727c44.218182 0 81.454545-37.236364 81.454545-81.454545V81.454545c0-44.218182-37.236364-81.454545-81.454545-81.454545H188.509091C144.290909 0 107.054545 37.236364 107.054545 81.454545v807.563637c0 74.472727 60.509091 134.981818 134.981819 134.981818h593.454545c44.218182 0 81.454545-37.236364 81.454546-81.454545V134.981818c0-13.963636-13.963636-27.927273-27.927273-27.927273zM188.509091 53.527273h539.927273c13.963636 0 27.927273 11.636364 27.927272 27.927272v646.981819c0 13.963636-11.636364 27.927273-27.927272 27.927272H242.036364c-30.254545 0-58.181818 9.309091-81.454546 27.927273V81.454545c0-16.290909 13.963636-27.927273 27.927273-27.927272z" p-id="3070" fill="#e6e6e6"></path></svg>