<?xml version="1.0" standalone="no"?><!DOCTYPE svg PUBLIC "-//W3C//DTD SVG 1.1//EN" "http://www.w3.org/Graphics/SVG/1.1/DTD/svg11.dtd"><svg t="1608387976642" class="icon" viewBox="0 0 1024 1024" version="1.1" xmlns="http://www.w3.org/2000/svg" p-id="4622" xmlns:xlink="http://www.w3.org/1999/xlink" width="200" height="200"><defs><style type="text/css"></style></defs><path d="M644.519989 0.00064a103.93574 103.93574 0 0 1 104.319739 103.359742v84.479788h199.359502a42.591894 42.591894 0 0 1 38.079904 20.15995 41.599896 41.599896 0 0 1-0.319999 42.559894 40.831898 40.831898 0 0 1-37.759905 19.83995h-39.039903v578.238554A176.671558 176.671558 0 0 1 731.87977 1023.99808H290.280874a176.511559 176.511559 0 0 1-177.279556-175.679561V270.719963H73.641416a42.463894 42.463894 0 0 1-36.15991-20.799948 41.343897 41.343897 0 0 1 0-41.279897 42.463894 42.463894 0 0 1 36.15991-20.799948h199.679501V103.360382A103.93574 103.93574 0 0 1 377.640656 0.00064h266.879333z m181.119547 270.719323H196.521109v577.598556a93.343767 93.343767 0 0 0 93.759765 93.119767h441.278897a93.823765 93.823765 0 0 0 94.079765-93.119767V270.719963z m-431.038922 160.959598a38.399904 38.399904 0 0 1 38.719903 38.079905v294.079264a38.687903 38.687903 0 0 1-77.119807 0v-294.079264a38.399904 38.399904 0 0 1 38.399904-38.079905z m232.639418 0a38.399904 38.399904 0 0 1 38.719903 38.079905v294.079264a38.879903 38.879903 0 0 1-77.439806 0v-294.079264a38.719903 38.719903 0 0 1 38.719903-38.079905z m17.279957-349.119127H377.640656a21.855945 21.855945 0 0 0-15.039962 6.079984 21.119947 21.119947 0 0 0-6.079985 14.719964v84.479788h308.799228V103.040382a20.703948 20.703948 0 0 0-20.799948-20.479948z m0 0" p-id="4623" fill="#e6e6e6"></path></svg>