<?xml version="1.0" standalone="no"?><!DOCTYPE svg PUBLIC "-//W3C//DTD SVG 1.1//EN" "http://www.w3.org/Graphics/SVG/1.1/DTD/svg11.dtd"><svg t="1608355049978" class="icon" viewBox="0 0 1024 1024" version="1.1" xmlns="http://www.w3.org/2000/svg" p-id="26354" xmlns:xlink="http://www.w3.org/1999/xlink" width="200" height="200"><defs><style type="text/css"></style></defs><path d="M645.12 402.56s4.48 53.12 100.48 64c0 0 60.16-8.96 44.16 49.92v4.48c-7.68 10.24-35.2 28.8-99.84 8.96a231.68 231.68 0 0 1-131.84-99.84 51.84 51.84 0 0 1-29.44 12.16 192 192 0 0 0 158.08 128c102.4-3.2 97.28 110.08-89.6 53.76a366.72 366.72 0 0 1-140.8-156.16c-186.88 224 128 448 314.88 276.48 0 0 49.28-38.4 76.16 12.8 0 0 21.76 49.28-71.04 100.48 0 0 83.2 33.28-54.4 79.36a535.68 535.68 0 0 1-380.16-27.52A99.2 99.2 0 0 1 369.92 832l-20.48 16a277.12 277.12 0 0 1-80 34.56 320 320 0 0 1-101.76-87.68 547.84 547.84 0 0 0 115.2-100.48 584.32 584.32 0 0 1-142.72 49.92A271.36 271.36 0 0 1 64 580.48a640 640 0 0 0 217.6 11.52A622.08 622.08 0 0 1 64 492.8 419.2 419.2 0 0 1 156.16 256c14.72 19.84 159.36 174.08 271.36 198.4 0 0-197.76-148.48-174.08-275.2A1319.04 1319.04 0 0 1 862.08 64h4.48q5.76 11.52-32.64 47.36c147.2-36.48 128 10.88 119.04 25.6 0 0-56.96 119.04-307.84 265.6z m157.44-256C797.44 128 768 123.52 741.76 128a78.08 78.08 0 0 0-33.92 16c27.52-10.24 55.68-7.04 64 7.04s-10.24 35.84-39.04 47.36h-9.6A93.44 93.44 0 0 0 768 192c26.88-13.44 40.32-33.92 33.92-49.28z" p-id="26355"></path></svg>